<mxfile host="Electron" agent="Mozilla/5.0 (Windows NT 10.0; Win64; x64) AppleWebKit/537.36 (KHTML, like Gecko) draw.io/26.2.2 Chrome/134.0.6998.178 Electron/35.1.2 Safari/537.36" version="26.2.2">
  <diagram name="Page-1" id="syJIYW2bs6vogzkC_fHn">
    <mxGraphModel dx="3793" dy="2846" grid="1" gridSize="10" guides="1" tooltips="1" connect="1" arrows="1" fold="1" page="1" pageScale="1" pageWidth="850" pageHeight="1100" math="0" shadow="0">
      <root>
        <mxCell id="0" />
        <mxCell id="1" parent="0" />
        <mxCell id="UJzDAcCzFmksDbg4WFvt-1" value="Form quên mật khẩu" style="shape=umlLifeline;perimeter=lifelinePerimeter;whiteSpace=wrap;html=1;container=1;dropTarget=0;collapsible=0;recursiveResize=0;outlineConnect=0;portConstraint=eastwest;newEdgeStyle={&quot;curved&quot;:0,&quot;rounded&quot;:0};" parent="1" vertex="1">
          <mxGeometry x="-51" y="-40" width="100" height="1440" as="geometry" />
        </mxCell>
        <mxCell id="UJzDAcCzFmksDbg4WFvt-2" value=":Khách Hàng" style="shape=umlLifeline;perimeter=lifelinePerimeter;whiteSpace=wrap;html=1;container=1;dropTarget=0;collapsible=0;recursiveResize=0;outlineConnect=0;portConstraint=eastwest;newEdgeStyle={&quot;curved&quot;:0,&quot;rounded&quot;:0};" parent="1" vertex="1">
          <mxGeometry x="350" y="-40" width="100" height="1240" as="geometry" />
        </mxCell>
        <mxCell id="UJzDAcCzFmksDbg4WFvt-3" value="controller" style="shape=umlLifeline;perimeter=lifelinePerimeter;whiteSpace=wrap;html=1;container=1;dropTarget=0;collapsible=0;recursiveResize=0;outlineConnect=0;portConstraint=eastwest;newEdgeStyle={&quot;curved&quot;:0,&quot;rounded&quot;:0};" parent="1" vertex="1">
          <mxGeometry x="150" y="-40" width="100" height="1240" as="geometry" />
        </mxCell>
        <mxCell id="Y9079R9nerFKjN1x_bQ0-10" value="" style="html=1;points=[[0,0,0,0,5],[0,1,0,0,-5],[1,0,0,0,5],[1,1,0,0,-5]];perimeter=orthogonalPerimeter;outlineConnect=0;targetShapes=umlLifeline;portConstraint=eastwest;newEdgeStyle={&quot;curved&quot;:0,&quot;rounded&quot;:0};" vertex="1" parent="UJzDAcCzFmksDbg4WFvt-3">
          <mxGeometry x="45" y="180" width="10" height="960" as="geometry" />
        </mxCell>
        <mxCell id="UJzDAcCzFmksDbg4WFvt-4" value="Database" style="shape=umlLifeline;perimeter=lifelinePerimeter;whiteSpace=wrap;html=1;container=1;dropTarget=0;collapsible=0;recursiveResize=0;outlineConnect=0;portConstraint=eastwest;newEdgeStyle={&quot;curved&quot;:0,&quot;rounded&quot;:0};" parent="1" vertex="1">
          <mxGeometry x="550" y="-40" width="100" height="1240" as="geometry" />
        </mxCell>
        <mxCell id="Y9079R9nerFKjN1x_bQ0-12" value="" style="html=1;points=[[0,0,0,0,5],[0,1,0,0,-5],[1,0,0,0,5],[1,1,0,0,-5]];perimeter=orthogonalPerimeter;outlineConnect=0;targetShapes=umlLifeline;portConstraint=eastwest;newEdgeStyle={&quot;curved&quot;:0,&quot;rounded&quot;:0};" vertex="1" parent="UJzDAcCzFmksDbg4WFvt-4">
          <mxGeometry x="45" y="260" width="10" height="800" as="geometry" />
        </mxCell>
        <mxCell id="UJzDAcCzFmksDbg4WFvt-5" value="Email" style="shape=umlLifeline;perimeter=lifelinePerimeter;whiteSpace=wrap;html=1;container=1;dropTarget=0;collapsible=0;recursiveResize=0;outlineConnect=0;portConstraint=eastwest;newEdgeStyle={&quot;curved&quot;:0,&quot;rounded&quot;:0};" parent="1" vertex="1">
          <mxGeometry x="750" y="-40" width="100" height="1240" as="geometry" />
        </mxCell>
        <mxCell id="UJzDAcCzFmksDbg4WFvt-6" value="" style="shape=umlLifeline;perimeter=lifelinePerimeter;whiteSpace=wrap;html=1;container=1;dropTarget=0;collapsible=0;recursiveResize=0;outlineConnect=0;portConstraint=eastwest;newEdgeStyle={&quot;curved&quot;:0,&quot;rounded&quot;:0};participant=umlActor;" parent="1" vertex="1">
          <mxGeometry x="-210" y="-40" width="20" height="1240" as="geometry" />
        </mxCell>
        <mxCell id="Y9079R9nerFKjN1x_bQ0-9" value="" style="html=1;points=[[0,0,0,0,5],[0,1,0,0,-5],[1,0,0,0,5],[1,1,0,0,-5]];perimeter=orthogonalPerimeter;outlineConnect=0;targetShapes=umlLifeline;portConstraint=eastwest;newEdgeStyle={&quot;curved&quot;:0,&quot;rounded&quot;:0};" vertex="1" parent="UJzDAcCzFmksDbg4WFvt-6">
          <mxGeometry x="5" y="60" width="10" height="840" as="geometry" />
        </mxCell>
        <mxCell id="UJzDAcCzFmksDbg4WFvt-8" value="Nhâp username" style="html=1;verticalAlign=bottom;endArrow=block;curved=0;rounded=0;" parent="1" target="UJzDAcCzFmksDbg4WFvt-1" edge="1" source="UJzDAcCzFmksDbg4WFvt-6">
          <mxGeometry width="80" relative="1" as="geometry">
            <mxPoint x="-210" y="120" as="sourcePoint" />
            <mxPoint x="-130" y="120" as="targetPoint" />
            <Array as="points">
              <mxPoint x="-150" y="80" />
              <mxPoint x="-90" y="80" />
            </Array>
          </mxGeometry>
        </mxCell>
        <mxCell id="UJzDAcCzFmksDbg4WFvt-9" value="nhấn nút gửi" style="html=1;verticalAlign=bottom;endArrow=block;curved=0;rounded=0;" parent="1" edge="1" target="UJzDAcCzFmksDbg4WFvt-1" source="UJzDAcCzFmksDbg4WFvt-6">
          <mxGeometry width="80" relative="1" as="geometry">
            <mxPoint x="-205" y="161" as="sourcePoint" />
            <mxPoint x="9.5" y="161" as="targetPoint" />
            <Array as="points">
              <mxPoint x="-120" y="120" />
            </Array>
          </mxGeometry>
        </mxCell>
        <mxCell id="UJzDAcCzFmksDbg4WFvt-11" value="alt" style="shape=umlFrame;whiteSpace=wrap;html=1;pointerEvents=0;" parent="1" vertex="1">
          <mxGeometry x="-410" y="400" width="1250" height="1000" as="geometry" />
        </mxCell>
        <mxCell id="UJzDAcCzFmksDbg4WFvt-16" value="Gửi yêu cầu" style="html=1;verticalAlign=bottom;endArrow=block;curved=0;rounded=0;" parent="1" edge="1" target="UJzDAcCzFmksDbg4WFvt-3" source="UJzDAcCzFmksDbg4WFvt-1">
          <mxGeometry width="80" relative="1" as="geometry">
            <mxPoint x="10" y="171" as="sourcePoint" />
            <mxPoint x="185" y="171" as="targetPoint" />
            <Array as="points">
              <mxPoint x="100" y="160" />
            </Array>
          </mxGeometry>
        </mxCell>
        <mxCell id="UJzDAcCzFmksDbg4WFvt-17" value="Kiểm tra tồn tại" style="html=1;verticalAlign=bottom;endArrow=block;curved=0;rounded=0;" parent="1" edge="1" target="UJzDAcCzFmksDbg4WFvt-2" source="UJzDAcCzFmksDbg4WFvt-3">
          <mxGeometry width="80" relative="1" as="geometry">
            <mxPoint x="195" y="181" as="sourcePoint" />
            <mxPoint x="380" y="181" as="targetPoint" />
            <Array as="points">
              <mxPoint x="290" y="200" />
            </Array>
          </mxGeometry>
        </mxCell>
        <mxCell id="UJzDAcCzFmksDbg4WFvt-18" value="thực thi truy vấn" style="html=1;verticalAlign=bottom;endArrow=block;curved=0;rounded=0;" parent="1" edge="1" target="UJzDAcCzFmksDbg4WFvt-4" source="UJzDAcCzFmksDbg4WFvt-2">
          <mxGeometry width="80" relative="1" as="geometry">
            <mxPoint x="380" y="190" as="sourcePoint" />
            <mxPoint x="555" y="190" as="targetPoint" />
            <Array as="points">
              <mxPoint x="470" y="240" />
            </Array>
          </mxGeometry>
        </mxCell>
        <mxCell id="UJzDAcCzFmksDbg4WFvt-19" value="return" style="html=1;verticalAlign=bottom;endArrow=open;dashed=1;endSize=8;curved=0;rounded=0;" parent="1" edge="1" target="UJzDAcCzFmksDbg4WFvt-2" source="UJzDAcCzFmksDbg4WFvt-4">
          <mxGeometry relative="1" as="geometry">
            <mxPoint x="554" y="230" as="sourcePoint" />
            <mxPoint x="383.07142857142844" y="230" as="targetPoint" />
            <Array as="points">
              <mxPoint x="470" y="280" />
            </Array>
          </mxGeometry>
        </mxCell>
        <mxCell id="UJzDAcCzFmksDbg4WFvt-20" value="return" style="html=1;verticalAlign=bottom;endArrow=open;dashed=1;endSize=8;curved=0;rounded=0;" parent="1" edge="1" target="UJzDAcCzFmksDbg4WFvt-3" source="UJzDAcCzFmksDbg4WFvt-2">
          <mxGeometry relative="1" as="geometry">
            <mxPoint x="399.5" y="1033" as="sourcePoint" />
            <mxPoint x="198.5" y="1033" as="targetPoint" />
            <Array as="points">
              <mxPoint x="290" y="1040" />
            </Array>
          </mxGeometry>
        </mxCell>
        <mxCell id="UJzDAcCzFmksDbg4WFvt-22" value="alt" style="shape=umlFrame;whiteSpace=wrap;html=1;pointerEvents=0;" parent="1" vertex="1">
          <mxGeometry x="-390" y="1118" width="1210" height="160" as="geometry" />
        </mxCell>
        <mxCell id="UJzDAcCzFmksDbg4WFvt-23" value="thông tin tồn tại" style="text;html=1;align=center;verticalAlign=middle;resizable=0;points=[];autosize=1;strokeColor=none;fillColor=none;" parent="1" vertex="1">
          <mxGeometry x="-330" y="410" width="110" height="30" as="geometry" />
        </mxCell>
        <mxCell id="UJzDAcCzFmksDbg4WFvt-24" value="" style="endArrow=none;dashed=1;html=1;rounded=0;exitX=0;exitY=0.561;exitDx=0;exitDy=0;exitPerimeter=0;" parent="1" edge="1">
          <mxGeometry width="50" height="50" relative="1" as="geometry">
            <mxPoint x="-410" y="1297.0900000000001" as="sourcePoint" />
            <mxPoint x="840" y="1300" as="targetPoint" />
            <Array as="points" />
          </mxGeometry>
        </mxCell>
        <mxCell id="UJzDAcCzFmksDbg4WFvt-26" value="Gửi mã xác thực" style="html=1;verticalAlign=bottom;endArrow=block;curved=0;rounded=0;" parent="1" edge="1" target="UJzDAcCzFmksDbg4WFvt-5" source="UJzDAcCzFmksDbg4WFvt-3">
          <mxGeometry width="80" relative="1" as="geometry">
            <mxPoint x="190" y="522" as="sourcePoint" />
            <mxPoint x="745" y="522" as="targetPoint" />
            <Array as="points">
              <mxPoint x="470" y="560" />
            </Array>
          </mxGeometry>
        </mxCell>
        <mxCell id="UJzDAcCzFmksDbg4WFvt-27" value="" style="endArrow=none;dashed=1;html=1;rounded=0;" parent="1" edge="1">
          <mxGeometry width="50" height="50" relative="1" as="geometry">
            <mxPoint x="-390" y="1198" as="sourcePoint" />
            <mxPoint x="820" y="1201" as="targetPoint" />
            <Array as="points">
              <mxPoint x="230" y="1198" />
            </Array>
          </mxGeometry>
        </mxCell>
        <mxCell id="UJzDAcCzFmksDbg4WFvt-29" value="return mã xác thực" style="html=1;verticalAlign=bottom;endArrow=open;dashed=1;endSize=8;curved=0;rounded=0;" parent="1" target="UJzDAcCzFmksDbg4WFvt-6" edge="1" source="UJzDAcCzFmksDbg4WFvt-5">
          <mxGeometry relative="1" as="geometry">
            <mxPoint x="745" y="560" as="sourcePoint" />
            <mxPoint x="-211.16666666666652" y="560" as="targetPoint" />
            <Array as="points">
              <mxPoint x="270" y="600" />
            </Array>
          </mxGeometry>
        </mxCell>
        <mxCell id="UJzDAcCzFmksDbg4WFvt-30" value="nhâp mã xác thực" style="html=1;verticalAlign=bottom;endArrow=block;curved=0;rounded=0;" parent="1" edge="1" target="UJzDAcCzFmksDbg4WFvt-1" source="UJzDAcCzFmksDbg4WFvt-6">
          <mxGeometry width="80" relative="1" as="geometry">
            <mxPoint x="-210.92857142857156" y="657" as="sourcePoint" />
            <mxPoint x="9.499999999999545" y="657" as="targetPoint" />
            <Array as="points">
              <mxPoint x="-100" y="640" />
            </Array>
          </mxGeometry>
        </mxCell>
        <mxCell id="UJzDAcCzFmksDbg4WFvt-31" value="kiểm tra" style="html=1;verticalAlign=bottom;endArrow=block;curved=0;rounded=0;" parent="1" edge="1" target="UJzDAcCzFmksDbg4WFvt-5" source="UJzDAcCzFmksDbg4WFvt-3">
          <mxGeometry x="-0.1886" y="10" width="80" relative="1" as="geometry">
            <mxPoint x="191" y="677" as="sourcePoint" />
            <mxPoint x="750.5" y="677" as="targetPoint" />
            <mxPoint as="offset" />
            <Array as="points">
              <mxPoint x="470" y="720" />
            </Array>
          </mxGeometry>
        </mxCell>
        <mxCell id="UJzDAcCzFmksDbg4WFvt-32" value="return" style="html=1;verticalAlign=bottom;endArrow=open;dashed=1;endSize=8;curved=0;rounded=0;" parent="1" source="UJzDAcCzFmksDbg4WFvt-5" edge="1" target="UJzDAcCzFmksDbg4WFvt-3">
          <mxGeometry relative="1" as="geometry">
            <mxPoint x="749.5" y="700" as="sourcePoint" />
            <mxPoint x="190" y="700" as="targetPoint" />
            <Array as="points">
              <mxPoint x="470" y="760" />
            </Array>
          </mxGeometry>
        </mxCell>
        <mxCell id="UJzDAcCzFmksDbg4WFvt-33" value="return" style="html=1;verticalAlign=bottom;endArrow=open;dashed=1;endSize=8;curved=0;rounded=0;" parent="1" edge="1" target="UJzDAcCzFmksDbg4WFvt-1" source="UJzDAcCzFmksDbg4WFvt-3">
          <mxGeometry relative="1" as="geometry">
            <mxPoint x="190" y="715" as="sourcePoint" />
            <mxPoint x="9.071428571428442" y="715" as="targetPoint" />
            <Array as="points">
              <mxPoint x="90" y="800" />
            </Array>
          </mxGeometry>
        </mxCell>
        <mxCell id="UJzDAcCzFmksDbg4WFvt-34" value="nhập mật khẩu mới" style="html=1;verticalAlign=bottom;endArrow=block;curved=0;rounded=0;" parent="1" edge="1" target="UJzDAcCzFmksDbg4WFvt-1" source="UJzDAcCzFmksDbg4WFvt-6">
          <mxGeometry width="80" relative="1" as="geometry">
            <mxPoint x="-201.5" y="913" as="sourcePoint" />
            <mxPoint x="-1.5" y="913" as="targetPoint" />
            <Array as="points">
              <mxPoint x="-100" y="840" />
            </Array>
          </mxGeometry>
        </mxCell>
        <mxCell id="UJzDAcCzFmksDbg4WFvt-35" value="nhập đúng&lt;div&gt;&amp;nbsp;mã xác thực&lt;/div&gt;" style="text;html=1;align=center;verticalAlign=middle;resizable=0;points=[];autosize=1;strokeColor=none;fillColor=none;" parent="1" vertex="1">
          <mxGeometry x="-320" y="1119" width="90" height="40" as="geometry" />
        </mxCell>
        <mxCell id="UJzDAcCzFmksDbg4WFvt-37" value="Gửi yêu cầu" style="html=1;verticalAlign=bottom;endArrow=block;curved=0;rounded=0;" parent="1" edge="1" target="UJzDAcCzFmksDbg4WFvt-3" source="Y9079R9nerFKjN1x_bQ0-3">
          <mxGeometry width="80" relative="1" as="geometry">
            <mxPoint x="10" y="912.38" as="sourcePoint" />
            <mxPoint x="190" y="912" as="targetPoint" />
            <Array as="points">
              <mxPoint x="100" y="880" />
            </Array>
          </mxGeometry>
        </mxCell>
        <mxCell id="UJzDAcCzFmksDbg4WFvt-39" value="cập nhật" style="html=1;verticalAlign=bottom;endArrow=block;curved=0;rounded=0;" parent="1" edge="1" target="UJzDAcCzFmksDbg4WFvt-2" source="UJzDAcCzFmksDbg4WFvt-3">
          <mxGeometry width="80" relative="1" as="geometry">
            <mxPoint x="198.5" y="913" as="sourcePoint" />
            <mxPoint x="399.5" y="913" as="targetPoint" />
            <Array as="points">
              <mxPoint x="320" y="920" />
            </Array>
          </mxGeometry>
        </mxCell>
        <mxCell id="UJzDAcCzFmksDbg4WFvt-40" value="thực thi truy vấn" style="html=1;verticalAlign=bottom;endArrow=block;curved=0;rounded=0;" parent="1" edge="1" target="UJzDAcCzFmksDbg4WFvt-4" source="UJzDAcCzFmksDbg4WFvt-2">
          <mxGeometry x="-0.1751" y="6" width="80" relative="1" as="geometry">
            <mxPoint x="398.5" y="953" as="sourcePoint" />
            <mxPoint x="599.5" y="953" as="targetPoint" />
            <Array as="points">
              <mxPoint x="550" y="960" />
            </Array>
            <mxPoint as="offset" />
          </mxGeometry>
        </mxCell>
        <mxCell id="UJzDAcCzFmksDbg4WFvt-41" value="return" style="html=1;verticalAlign=bottom;endArrow=open;dashed=1;endSize=8;curved=0;rounded=0;" parent="1" edge="1" target="UJzDAcCzFmksDbg4WFvt-2" source="UJzDAcCzFmksDbg4WFvt-4">
          <mxGeometry relative="1" as="geometry">
            <mxPoint x="599.5" y="993" as="sourcePoint" />
            <mxPoint x="398.5" y="993" as="targetPoint" />
            <Array as="points">
              <mxPoint x="500" y="1000" />
            </Array>
          </mxGeometry>
        </mxCell>
        <mxCell id="UJzDAcCzFmksDbg4WFvt-42" value="return" style="html=1;verticalAlign=bottom;endArrow=open;dashed=1;endSize=8;curved=0;rounded=0;" parent="1" edge="1" target="UJzDAcCzFmksDbg4WFvt-3" source="UJzDAcCzFmksDbg4WFvt-2">
          <mxGeometry relative="1" as="geometry">
            <mxPoint x="375" y="240" as="sourcePoint" />
            <mxPoint x="185" y="240" as="targetPoint" />
            <Array as="points">
              <mxPoint x="270" y="320" />
            </Array>
          </mxGeometry>
        </mxCell>
        <mxCell id="UJzDAcCzFmksDbg4WFvt-43" value="return" style="html=1;verticalAlign=bottom;endArrow=open;dashed=1;endSize=8;curved=0;rounded=0;" parent="1" edge="1" target="UJzDAcCzFmksDbg4WFvt-1" source="UJzDAcCzFmksDbg4WFvt-3">
          <mxGeometry relative="1" as="geometry">
            <mxPoint x="199.5" y="1073" as="sourcePoint" />
            <mxPoint x="-2.5" y="1073" as="targetPoint" />
            <Array as="points">
              <mxPoint x="100" y="1080" />
            </Array>
          </mxGeometry>
        </mxCell>
        <mxCell id="UJzDAcCzFmksDbg4WFvt-47" value="&lt;div style=&quot;text-align: center;&quot;&gt;&lt;span style=&quot;background-color: transparent; color: light-dark(rgb(0, 0, 0), rgb(255, 255, 255)); text-wrap-mode: nowrap;&quot;&gt;nhập sai mã xác thực&lt;/span&gt;&lt;/div&gt;" style="text;whiteSpace=wrap;html=1;" parent="1" vertex="1">
          <mxGeometry x="-370" y="1205" width="120" height="50" as="geometry" />
        </mxCell>
        <mxCell id="UJzDAcCzFmksDbg4WFvt-50" value="&lt;span style=&quot;color: rgb(0, 0, 0); font-family: Helvetica; font-size: 12px; font-style: normal; font-variant-ligatures: normal; font-variant-caps: normal; font-weight: 400; letter-spacing: normal; orphans: 2; text-align: center; text-indent: 0px; text-transform: none; widows: 2; word-spacing: 0px; -webkit-text-stroke-width: 0px; white-space: nowrap; background-color: rgb(236, 236, 236); text-decoration-thickness: initial; text-decoration-style: initial; text-decoration-color: initial; float: none; display: inline !important;&quot;&gt;thông tin không tồn tại&lt;/span&gt;" style="text;whiteSpace=wrap;html=1;" parent="1" vertex="1">
          <mxGeometry x="-390" y="1333" width="140" height="40" as="geometry" />
        </mxCell>
        <mxCell id="UJzDAcCzFmksDbg4WFvt-51" value="khách hàng" style="text;html=1;align=center;verticalAlign=middle;resizable=0;points=[];autosize=1;strokeColor=none;fillColor=none;" parent="1" vertex="1">
          <mxGeometry x="-320" y="-30" width="90" height="30" as="geometry" />
        </mxCell>
        <mxCell id="3TrWQpD0Z_cgmR5mw5xT-1" value="Gửi yêu cầu" style="html=1;verticalAlign=bottom;endArrow=block;curved=0;rounded=0;" parent="1" edge="1" target="UJzDAcCzFmksDbg4WFvt-3" source="Y9079R9nerFKjN1x_bQ0-3">
          <mxGeometry width="80" relative="1" as="geometry">
            <mxPoint x="12.5" y="540" as="sourcePoint" />
            <mxPoint x="187.5" y="540" as="targetPoint" />
            <Array as="points">
              <mxPoint x="90" y="520" />
            </Array>
          </mxGeometry>
        </mxCell>
        <mxCell id="3TrWQpD0Z_cgmR5mw5xT-3" value="Hiện giao diện&lt;div&gt;nhập mã xác thực&lt;/div&gt;" style="html=1;align=left;spacingLeft=2;endArrow=block;rounded=0;edgeStyle=orthogonalEdgeStyle;curved=0;rounded=0;" parent="1" edge="1" target="Y9079R9nerFKjN1x_bQ0-8" source="UJzDAcCzFmksDbg4WFvt-1">
          <mxGeometry relative="1" as="geometry">
            <mxPoint x="-2.2142857142857792" y="440.0000000000002" as="sourcePoint" />
            <Array as="points">
              <mxPoint x="50" y="440" />
              <mxPoint x="50" y="480" />
            </Array>
            <mxPoint x="9" y="480" as="targetPoint" />
          </mxGeometry>
        </mxCell>
        <mxCell id="3TrWQpD0Z_cgmR5mw5xT-4" value="Gửi yêu cầu" style="html=1;verticalAlign=bottom;endArrow=block;curved=0;rounded=0;" parent="1" edge="1" target="UJzDAcCzFmksDbg4WFvt-3" source="UJzDAcCzFmksDbg4WFvt-1">
          <mxGeometry width="80" relative="1" as="geometry">
            <mxPoint x="11" y="666" as="sourcePoint" />
            <mxPoint x="186" y="666" as="targetPoint" />
            <Array as="points">
              <mxPoint x="90" y="680" />
            </Array>
          </mxGeometry>
        </mxCell>
        <mxCell id="3TrWQpD0Z_cgmR5mw5xT-5" value="return" style="html=1;verticalAlign=bottom;endArrow=open;dashed=1;endSize=8;curved=0;rounded=0;" parent="1" edge="1" target="UJzDAcCzFmksDbg4WFvt-1" source="UJzDAcCzFmksDbg4WFvt-3">
          <mxGeometry relative="1" as="geometry">
            <mxPoint x="195" y="250" as="sourcePoint" />
            <mxPoint x="10" y="250" as="targetPoint" />
            <Array as="points">
              <mxPoint x="90" y="360" />
            </Array>
          </mxGeometry>
        </mxCell>
        <mxCell id="3TrWQpD0Z_cgmR5mw5xT-8" value="" style="html=1;points=[[0,0,0,0,5],[0,1,0,0,-5],[1,0,0,0,5],[1,1,0,0,-5]];perimeter=orthogonalPerimeter;outlineConnect=0;targetShapes=umlLifeline;portConstraint=eastwest;newEdgeStyle={&quot;curved&quot;:0,&quot;rounded&quot;:0};" parent="1" vertex="1">
          <mxGeometry x="-1" y="1147" width="10" height="40" as="geometry" />
        </mxCell>
        <mxCell id="3TrWQpD0Z_cgmR5mw5xT-9" value="hiện thông báo cập nhật&lt;div&gt;mật khẩu thành công&lt;/div&gt;" style="html=1;align=left;spacingLeft=2;endArrow=block;rounded=0;edgeStyle=orthogonalEdgeStyle;curved=0;rounded=0;" parent="1" edge="1" target="3TrWQpD0Z_cgmR5mw5xT-8" source="UJzDAcCzFmksDbg4WFvt-1">
          <mxGeometry relative="1" as="geometry">
            <mxPoint x="-1.5" y="1125" as="sourcePoint" />
            <Array as="points">
              <mxPoint x="59" y="1130" />
              <mxPoint x="59" y="1167" />
            </Array>
            <mxPoint x="6" y="1157" as="targetPoint" />
          </mxGeometry>
        </mxCell>
        <mxCell id="3TrWQpD0Z_cgmR5mw5xT-11" value="" style="html=1;points=[[0,0,0,0,5],[0,1,0,0,-5],[1,0,0,0,5],[1,1,0,0,-5]];perimeter=orthogonalPerimeter;outlineConnect=0;targetShapes=umlLifeline;portConstraint=eastwest;newEdgeStyle={&quot;curved&quot;:0,&quot;rounded&quot;:0};" parent="1" vertex="1">
          <mxGeometry x="-1" y="1230" width="10" height="40" as="geometry" />
        </mxCell>
        <mxCell id="3TrWQpD0Z_cgmR5mw5xT-12" value="hiển thị thông báo mã xác&amp;nbsp;&lt;div&gt;thực sai&lt;/div&gt;" style="html=1;align=left;spacingLeft=2;endArrow=block;rounded=0;edgeStyle=orthogonalEdgeStyle;curved=0;rounded=0;" parent="1" edge="1" target="3TrWQpD0Z_cgmR5mw5xT-11" source="UJzDAcCzFmksDbg4WFvt-1">
          <mxGeometry relative="1" as="geometry">
            <mxPoint x="-1.5" y="1205" as="sourcePoint" />
            <Array as="points">
              <mxPoint x="59" y="1210" />
              <mxPoint x="59" y="1250" />
            </Array>
            <mxPoint x="6" y="1238" as="targetPoint" />
          </mxGeometry>
        </mxCell>
        <mxCell id="3TrWQpD0Z_cgmR5mw5xT-13" value="" style="html=1;points=[[0,0,0,0,5],[0,1,0,0,-5],[1,0,0,0,5],[1,1,0,0,-5]];perimeter=orthogonalPerimeter;outlineConnect=0;targetShapes=umlLifeline;portConstraint=eastwest;newEdgeStyle={&quot;curved&quot;:0,&quot;rounded&quot;:0};" parent="1" vertex="1">
          <mxGeometry x="-1" y="1340" width="10" height="40" as="geometry" />
        </mxCell>
        <mxCell id="3TrWQpD0Z_cgmR5mw5xT-14" value="hiện thông báo&amp;nbsp;&lt;div&gt;email nhập sai&lt;/div&gt;" style="html=1;align=left;spacingLeft=2;endArrow=block;rounded=0;edgeStyle=orthogonalEdgeStyle;curved=0;rounded=0;" parent="1" edge="1" target="3TrWQpD0Z_cgmR5mw5xT-13" source="UJzDAcCzFmksDbg4WFvt-1">
          <mxGeometry relative="1" as="geometry">
            <mxPoint x="1" y="1313" as="sourcePoint" />
            <Array as="points">
              <mxPoint x="59" y="1320" />
              <mxPoint x="59" y="1360" />
            </Array>
            <mxPoint x="6" y="1343" as="targetPoint" />
          </mxGeometry>
        </mxCell>
        <mxCell id="Y9079R9nerFKjN1x_bQ0-1" value="Chọn chức năng quên mật khẩu" style="html=1;verticalAlign=bottom;endArrow=block;curved=0;rounded=0;" edge="1" parent="1" source="UJzDAcCzFmksDbg4WFvt-6" target="UJzDAcCzFmksDbg4WFvt-1">
          <mxGeometry width="80" relative="1" as="geometry">
            <mxPoint x="-210" y="40" as="sourcePoint" />
            <mxPoint x="10" y="40" as="targetPoint" />
            <Array as="points">
              <mxPoint x="-100" y="40" />
            </Array>
          </mxGeometry>
        </mxCell>
        <mxCell id="Y9079R9nerFKjN1x_bQ0-2" value="" style="html=1;verticalAlign=bottom;endArrow=block;curved=0;rounded=0;" edge="1" parent="1" source="UJzDAcCzFmksDbg4WFvt-1" target="Y9079R9nerFKjN1x_bQ0-3">
          <mxGeometry width="80" relative="1" as="geometry">
            <mxPoint x="-1" y="880" as="sourcePoint" />
            <mxPoint x="200" y="880" as="targetPoint" />
            <Array as="points" />
          </mxGeometry>
        </mxCell>
        <mxCell id="Y9079R9nerFKjN1x_bQ0-7" value="" style="html=1;verticalAlign=bottom;endArrow=block;curved=0;rounded=0;" edge="1" parent="1" source="UJzDAcCzFmksDbg4WFvt-1" target="Y9079R9nerFKjN1x_bQ0-3">
          <mxGeometry width="80" relative="1" as="geometry">
            <mxPoint x="-1" y="520" as="sourcePoint" />
            <mxPoint x="200" y="520" as="targetPoint" />
            <Array as="points" />
          </mxGeometry>
        </mxCell>
        <mxCell id="Y9079R9nerFKjN1x_bQ0-3" value="" style="html=1;points=[[0,0,0,0,5],[0,1,0,0,-5],[1,0,0,0,5],[1,1,0,0,-5]];perimeter=orthogonalPerimeter;outlineConnect=0;targetShapes=umlLifeline;portConstraint=eastwest;newEdgeStyle={&quot;curved&quot;:0,&quot;rounded&quot;:0};flipH=0;flipV=0;" vertex="1" parent="1">
          <mxGeometry x="-6" y="20" width="10" height="1370" as="geometry" />
        </mxCell>
        <mxCell id="Y9079R9nerFKjN1x_bQ0-8" value="" style="html=1;points=[[0,0,0,0,5],[0,1,0,0,-5],[1,0,0,0,5],[1,1,0,0,-5]];perimeter=orthogonalPerimeter;outlineConnect=0;targetShapes=umlLifeline;portConstraint=eastwest;newEdgeStyle={&quot;curved&quot;:0,&quot;rounded&quot;:0};" vertex="1" parent="1">
          <mxGeometry y="460" width="10" height="40" as="geometry" />
        </mxCell>
        <mxCell id="Y9079R9nerFKjN1x_bQ0-11" value="" style="html=1;points=[[0,0,0,0,5],[0,1,0,0,-5],[1,0,0,0,5],[1,1,0,0,-5]];perimeter=orthogonalPerimeter;outlineConnect=0;targetShapes=umlLifeline;portConstraint=eastwest;newEdgeStyle={&quot;curved&quot;:0,&quot;rounded&quot;:0};" vertex="1" parent="1">
          <mxGeometry x="395" y="180" width="10" height="880" as="geometry" />
        </mxCell>
        <mxCell id="Y9079R9nerFKjN1x_bQ0-13" value="" style="html=1;points=[[0,0,0,0,5],[0,1,0,0,-5],[1,0,0,0,5],[1,1,0,0,-5]];perimeter=orthogonalPerimeter;outlineConnect=0;targetShapes=umlLifeline;portConstraint=eastwest;newEdgeStyle={&quot;curved&quot;:0,&quot;rounded&quot;:0};" vertex="1" parent="1">
          <mxGeometry x="795" y="540" width="10" height="240" as="geometry" />
        </mxCell>
      </root>
    </mxGraphModel>
  </diagram>
</mxfile>
